<svg width="256" height="256" viewBox="0 0 256 256" fill="none" xmlns="http://www.w3.org/2000/svg">
<path d="M0 0H256V256H0V0Z" fill="black"/>
<path d="M75.4572 164H25V92H39.4235V149.59H75.4572V164Z" fill="white"/>
<path d="M97.4191 164H82.9956V92H97.4191V164Z" fill="white"/>
<path d="M125.261 106.41V135.23H139.685C141.661 135.23 143.521 134.862 145.263 134.126C147.005 133.356 148.53 132.318 149.836 131.013C151.143 129.707 152.165 128.184 152.902 126.444C153.673 124.669 154.058 122.795 154.058 120.82C154.058 118.845 153.673 116.987 152.902 115.247C152.165 113.473 151.143 111.933 149.836 110.628C148.53 109.322 147.005 108.301 145.263 107.565C143.521 106.795 141.661 106.41 139.685 106.41H125.261ZM125.261 164H110.838V92H139.685C142.331 92 144.878 92.3515 147.324 93.0544C149.769 93.7238 152.048 94.6946 154.158 95.9665C156.303 97.205 158.246 98.7113 159.988 100.485C161.764 102.226 163.271 104.167 164.511 106.31C165.784 108.452 166.756 110.745 167.426 113.188C168.13 115.632 168.481 118.176 168.481 120.82C168.481 124.77 167.728 128.502 166.22 132.017C164.712 135.498 162.652 138.544 160.038 141.155C157.425 143.766 154.359 145.824 150.841 147.331C147.357 148.837 143.638 149.59 139.685 149.59H125.261V164Z" fill="white"/>
<path d="M209.39 164H195.017V141.456C191.834 140.653 188.902 139.364 186.222 137.59C183.575 135.816 181.297 133.707 179.387 131.264C177.477 128.787 175.986 126.059 174.914 123.079C173.876 120.067 173.356 116.904 173.356 113.59V92H187.78V113.59C187.78 115.565 188.148 117.439 188.885 119.213C189.656 120.954 190.695 122.477 192.001 123.782C193.308 125.088 194.832 126.126 196.575 126.895C198.35 127.632 200.226 128 202.203 128C204.18 128 206.039 127.632 207.782 126.895C209.557 126.126 211.099 125.088 212.405 123.782C213.712 122.477 214.734 120.954 215.471 119.213C216.241 117.439 216.627 115.565 216.627 113.59V92H231V113.59C231 116.904 230.464 120.067 229.392 123.079C228.353 126.059 226.879 128.787 224.969 131.264C223.06 133.707 220.781 135.816 218.134 137.59C215.488 139.364 212.573 140.653 209.39 141.456V164Z" fill="white"/>
</svg>
